<svg width="704" height="91" viewBox="0 0 704 91" fill="none" xmlns="http://www.w3.org/2000/svg">
<path d="M0 0.240356L15.6823 11.8154L54.888 42.0598L88.1196 17.0428V38.6993L54.888 63.3429L15.6823 34.5921V82.7591H0V0.240356Z" fill="#555861"/>
<path d="M94.0938 12.5621L109.776 0.613708V12.5621V22.2702L94.0938 33.8452V22.2702V12.5621Z" fill="#FF4948"/>
<path d="M94.0938 41.6864L109.776 29.738V41.6864V82.3857H101.935H94.0938V51.3945V41.6864Z" fill="#555861"/>
<path d="M144.578 30H142.142C141.871 30 141.638 29.93 141.442 29.79C141.255 29.6407 141.078 29.426 140.91 29.146L135.604 21.796C135.361 21.432 135.1 21.18 134.82 21.04C134.54 20.8907 134.157 20.816 133.672 20.816H131.264V30H128.562V9.938H131.264V18.73H133.35C133.77 18.73 134.125 18.6647 134.414 18.534C134.713 18.4033 135.007 18.1467 135.296 17.764L140.546 10.708C140.686 10.484 140.854 10.302 141.05 10.162C141.255 10.0127 141.493 9.938 141.764 9.938H144.046L137.984 18.184C137.527 18.828 136.939 19.2713 136.22 19.514C136.715 19.6447 137.13 19.8547 137.466 20.144C137.811 20.424 138.138 20.816 138.446 21.32L144.578 30ZM157.973 22.552L154.823 14.39C154.73 14.1473 154.632 13.8673 154.529 13.55C154.426 13.2233 154.328 12.878 154.235 12.514C154.039 13.27 153.838 13.9 153.633 14.404L150.483 22.552H157.973ZM163.629 30H161.529C161.286 30 161.09 29.9393 160.941 29.818C160.792 29.6967 160.68 29.5427 160.605 29.356L158.729 24.512H149.727L147.851 29.356C147.795 29.524 147.688 29.6733 147.529 29.804C147.37 29.9347 147.17 30 146.927 30H144.841L152.863 9.938H155.607L163.629 30ZM179.338 27.872V12.08H172.702C172.59 14.3667 172.431 16.3733 172.226 18.1C172.02 19.8267 171.778 21.3247 171.498 22.594C171.218 23.8633 170.905 24.9273 170.56 25.786C170.214 26.6353 169.841 27.3307 169.44 27.872H179.338ZM185.344 27.872V34.074C185.344 34.3167 185.264 34.5127 185.106 34.662C184.947 34.8113 184.737 34.886 184.476 34.886H182.866V30H166.696V34.074C166.696 34.3167 166.612 34.5127 166.444 34.662C166.285 34.8113 166.08 34.886 165.828 34.886H164.204V27.872H166.248C166.537 27.732 166.826 27.508 167.116 27.2C167.405 26.8827 167.68 26.4347 167.942 25.856C168.212 25.268 168.464 24.5307 168.698 23.644C168.931 22.7573 169.141 21.6747 169.328 20.396C169.524 19.108 169.692 17.6053 169.832 15.888C169.972 14.1707 170.079 12.1873 170.154 9.938H182.068V27.872H185.344ZM194.504 20.34C195.278 20.34 195.96 20.2373 196.548 20.032C197.145 19.8267 197.644 19.542 198.046 19.178C198.456 18.8047 198.764 18.3613 198.97 17.848C199.175 17.3347 199.278 16.77 199.278 16.154C199.278 14.8753 198.881 13.8767 198.088 13.158C197.304 12.4393 196.109 12.08 194.504 12.08H191.284V20.34H194.504ZM194.504 9.938C195.773 9.938 196.874 10.0873 197.808 10.386C198.75 10.6753 199.53 11.0907 200.146 11.632C200.762 12.1733 201.219 12.8267 201.518 13.592C201.826 14.3573 201.98 15.2113 201.98 16.154C201.98 17.0873 201.816 17.9413 201.49 18.716C201.163 19.4907 200.682 20.158 200.048 20.718C199.422 21.278 198.643 21.7167 197.71 22.034C196.786 22.342 195.717 22.496 194.504 22.496H191.284V30H188.582V9.938H194.504ZM223.934 19.976C223.934 21.4787 223.696 22.86 223.22 24.12C222.744 25.3707 222.072 26.4487 221.204 27.354C220.336 28.2593 219.291 28.964 218.068 29.468C216.855 29.9627 215.511 30.21 214.036 30.21C212.561 30.21 211.217 29.9627 210.004 29.468C208.791 28.964 207.75 28.2593 206.882 27.354C206.014 26.4487 205.342 25.3707 204.866 24.12C204.39 22.86 204.152 21.4787 204.152 19.976C204.152 18.4733 204.39 17.0967 204.866 15.846C205.342 14.586 206.014 13.5033 206.882 12.598C207.75 11.6833 208.791 10.974 210.004 10.47C211.217 9.966 212.561 9.714 214.036 9.714C215.511 9.714 216.855 9.966 218.068 10.47C219.291 10.974 220.336 11.6833 221.204 12.598C222.072 13.5033 222.744 14.586 223.22 15.846C223.696 17.0967 223.934 18.4733 223.934 19.976ZM221.148 19.976C221.148 18.744 220.98 17.638 220.644 16.658C220.308 15.678 219.832 14.852 219.216 14.18C218.6 13.4987 217.853 12.976 216.976 12.612C216.099 12.248 215.119 12.066 214.036 12.066C212.963 12.066 211.987 12.248 211.11 12.612C210.233 12.976 209.481 13.4987 208.856 14.18C208.24 14.852 207.764 15.678 207.428 16.658C207.092 17.638 206.924 18.744 206.924 19.976C206.924 21.208 207.092 22.314 207.428 23.294C207.764 24.2647 208.24 25.0907 208.856 25.772C209.481 26.444 210.233 26.962 211.11 27.326C211.987 27.6807 212.963 27.858 214.036 27.858C215.119 27.858 216.099 27.6807 216.976 27.326C217.853 26.962 218.6 26.444 219.216 25.772C219.832 25.0907 220.308 24.2647 220.644 23.294C220.98 22.314 221.148 21.208 221.148 19.976ZM234.862 27.844C235.636 27.844 236.304 27.7553 236.864 27.578C237.424 27.4007 237.881 27.1533 238.236 26.836C238.6 26.5093 238.866 26.1267 239.034 25.688C239.202 25.24 239.286 24.75 239.286 24.218C239.286 23.182 238.917 22.3653 238.18 21.768C237.442 21.1613 236.336 20.858 234.862 20.858H230.522V27.844H234.862ZM230.522 12.08V18.926H234.106C234.871 18.926 235.534 18.842 236.094 18.674C236.663 18.506 237.13 18.2727 237.494 17.974C237.867 17.6753 238.142 17.316 238.32 16.896C238.497 16.4667 238.586 16 238.586 15.496C238.586 14.3107 238.231 13.4473 237.522 12.906C236.812 12.3553 235.711 12.08 234.218 12.08H230.522ZM234.218 9.938C235.45 9.938 236.509 10.0593 237.396 10.302C238.292 10.5447 239.024 10.89 239.594 11.338C240.172 11.786 240.597 12.3367 240.868 12.99C241.138 13.634 241.274 14.362 241.274 15.174C241.274 15.6687 241.194 16.1447 241.036 16.602C240.886 17.05 240.658 17.47 240.35 17.862C240.042 18.254 239.65 18.6087 239.174 18.926C238.707 19.234 238.156 19.486 237.522 19.682C238.996 19.962 240.102 20.4893 240.84 21.264C241.586 22.0293 241.96 23.0373 241.96 24.288C241.96 25.1373 241.801 25.912 241.484 26.612C241.176 27.312 240.718 27.914 240.112 28.418C239.514 28.922 238.777 29.314 237.9 29.594C237.022 29.8647 236.024 30 234.904 30H227.82V9.938H234.218ZM252.515 27.844C253.29 27.844 253.953 27.7553 254.503 27.578C255.063 27.4007 255.516 27.158 255.861 26.85C256.216 26.5327 256.473 26.1547 256.631 25.716C256.799 25.268 256.883 24.778 256.883 24.246C256.883 23.686 256.799 23.1913 256.631 22.762C256.473 22.3233 256.216 21.9547 255.861 21.656C255.516 21.348 255.068 21.1193 254.517 20.97C253.967 20.8113 253.304 20.732 252.529 20.732H248.623V27.844H252.515ZM252.529 18.576C253.752 18.576 254.807 18.7113 255.693 18.982C256.58 19.2433 257.308 19.6167 257.877 20.102C258.456 20.578 258.881 21.1473 259.151 21.81C259.431 22.4727 259.571 23.196 259.571 23.98C259.571 24.904 259.413 25.7393 259.095 26.486C258.787 27.2233 258.33 27.8533 257.723 28.376C257.126 28.8987 256.389 29.3 255.511 29.58C254.634 29.86 253.635 30 252.515 30H245.921V9.938H248.623V18.576H252.529ZM265.969 30H263.253V9.938H265.969V30ZM287.359 9.938V30H284.643V15.748C284.643 15.3467 284.652 14.9313 284.671 14.502C284.69 14.0633 284.732 13.6013 284.797 13.116C284.638 13.536 284.47 13.928 284.293 14.292C284.116 14.656 283.934 14.9733 283.747 15.244L274.339 29.146C274.208 29.3607 274.04 29.5567 273.835 29.734C273.63 29.9113 273.392 30 273.121 30H271.105V9.938H273.821V24.204C273.821 24.6053 273.812 25.0253 273.793 25.464C273.774 25.8933 273.732 26.3553 273.667 26.85C273.826 26.4207 273.994 26.024 274.171 25.66C274.358 25.296 274.54 24.974 274.717 24.694L284.125 10.792C284.256 10.5773 284.424 10.3813 284.629 10.204C284.834 10.0267 285.072 9.938 285.343 9.938H287.359ZM279.295 7.348C279.678 7.348 280 7.306 280.261 7.222C280.522 7.138 280.732 7.00267 280.891 6.816C281.059 6.62933 281.18 6.38667 281.255 6.088C281.33 5.78 281.367 5.402 281.367 4.954H282.823C283 4.954 283.136 5.03333 283.229 5.192C283.322 5.34133 283.369 5.514 283.369 5.71C283.369 6.64333 283.01 7.362 282.291 7.866C281.572 8.37 280.574 8.622 279.295 8.622C278.016 8.622 277.018 8.37 276.299 7.866C275.58 7.362 275.221 6.64333 275.221 5.71C275.221 5.514 275.268 5.34133 275.361 5.192C275.454 5.03333 275.59 4.954 275.767 4.954H277.223C277.223 5.402 277.26 5.78 277.335 6.088C277.41 6.38667 277.526 6.62933 277.685 6.816C277.853 7.00267 278.068 7.138 278.329 7.222C278.59 7.306 278.912 7.348 279.295 7.348ZM305.574 20.34C306.349 20.34 307.03 20.2373 307.618 20.032C308.215 19.8267 308.715 19.542 309.116 19.178C309.527 18.8047 309.835 18.3613 310.04 17.848C310.245 17.3347 310.348 16.77 310.348 16.154C310.348 14.8753 309.951 13.8767 309.158 13.158C308.374 12.4393 307.179 12.08 305.574 12.08H302.354V20.34H305.574ZM305.574 9.938C306.843 9.938 307.945 10.0873 308.878 10.386C309.821 10.6753 310.6 11.0907 311.216 11.632C311.832 12.1733 312.289 12.8267 312.588 13.592C312.896 14.3573 313.05 15.2113 313.05 16.154C313.05 17.0873 312.887 17.9413 312.56 18.716C312.233 19.4907 311.753 20.158 311.118 20.718C310.493 21.278 309.713 21.7167 308.78 22.034C307.856 22.342 306.787 22.496 305.574 22.496H302.354V30H299.652V9.938H305.574ZM328.844 27.788L328.83 30H316.468V9.938H328.83V12.15H319.184V18.814H326.996V20.942H319.184V27.788H328.844ZM331.466 11.814C332.222 11.142 333.1 10.6287 334.098 10.274C335.097 9.91933 336.231 9.742 337.5 9.742C338.536 9.742 339.465 9.868 340.286 10.12C341.117 10.372 341.822 10.7267 342.4 11.184C342.979 11.6413 343.422 12.1827 343.73 12.808C344.048 13.4333 344.206 14.1193 344.206 14.866C344.206 15.874 343.954 16.7607 343.45 17.526C342.956 18.2913 342.256 18.884 341.35 19.304C341.864 19.5187 342.33 19.7847 342.75 20.102C343.17 20.41 343.53 20.76 343.828 21.152C344.136 21.544 344.37 21.9733 344.528 22.44C344.696 22.9067 344.78 23.3967 344.78 23.91C344.78 24.7873 344.617 25.6087 344.29 26.374C343.964 27.1393 343.488 27.8067 342.862 28.376C342.246 28.936 341.486 29.3793 340.58 29.706C339.675 30.0327 338.644 30.196 337.486 30.196C336.049 30.196 334.756 29.9627 333.608 29.496C332.46 29.02 331.476 28.3807 330.654 27.578L331.438 26.29C331.513 26.1873 331.606 26.1033 331.718 26.038C331.83 25.9633 331.952 25.926 332.082 25.926C332.278 25.926 332.512 26.0333 332.782 26.248C333.053 26.4533 333.398 26.682 333.818 26.934C334.238 27.186 334.747 27.4193 335.344 27.634C335.951 27.8393 336.688 27.942 337.556 27.942C338.294 27.942 338.952 27.8533 339.53 27.676C340.118 27.4987 340.608 27.242 341 26.906C341.402 26.57 341.705 26.1593 341.91 25.674C342.125 25.1887 342.232 24.6427 342.232 24.036C342.232 23.5133 342.13 23.0327 341.924 22.594C341.728 22.1553 341.439 21.782 341.056 21.474C340.674 21.1567 340.207 20.914 339.656 20.746C339.106 20.5687 338.485 20.48 337.794 20.48H335.05V18.254H337.682C338.252 18.254 338.779 18.184 339.264 18.044C339.759 17.904 340.179 17.6987 340.524 17.428C340.879 17.1573 341.154 16.826 341.35 16.434C341.556 16.042 341.658 15.594 341.658 15.09C341.658 14.6327 341.565 14.2127 341.378 13.83C341.192 13.4473 340.921 13.1207 340.566 12.85C340.212 12.57 339.778 12.3553 339.264 12.206C338.751 12.0567 338.168 11.982 337.514 11.982C336.758 11.982 336.114 12.0613 335.582 12.22C335.05 12.3787 334.602 12.556 334.238 12.752C333.874 12.9387 333.576 13.1113 333.342 13.27C333.118 13.4287 332.922 13.508 332.754 13.508C332.605 13.508 332.484 13.4753 332.39 13.41C332.297 13.3447 332.208 13.2373 332.124 13.088L331.466 11.814ZM361.11 27.788L361.096 30H348.734V9.938H361.096V12.15H351.45V18.814H359.262V20.942H351.45V27.788H361.11ZM370.816 20.34C371.591 20.34 372.272 20.2373 372.86 20.032C373.457 19.8267 373.957 19.542 374.358 19.178C374.769 18.8047 375.077 18.3613 375.282 17.848C375.487 17.3347 375.59 16.77 375.59 16.154C375.59 14.8753 375.193 13.8767 374.4 13.158C373.616 12.4393 372.421 12.08 370.816 12.08H367.596V20.34H370.816ZM370.816 9.938C372.085 9.938 373.187 10.0873 374.12 10.386C375.063 10.6753 375.842 11.0907 376.458 11.632C377.074 12.1733 377.531 12.8267 377.83 13.592C378.138 14.3573 378.292 15.2113 378.292 16.154C378.292 17.0873 378.129 17.9413 377.802 18.716C377.475 19.4907 376.995 20.158 376.36 20.718C375.735 21.278 374.955 21.7167 374.022 22.034C373.098 22.342 372.029 22.496 370.816 22.496H367.596V30H364.894V9.938H370.816ZM388.752 27.844C389.527 27.844 390.194 27.7553 390.754 27.578C391.314 27.4007 391.772 27.1533 392.126 26.836C392.49 26.5093 392.756 26.1267 392.924 25.688C393.092 25.24 393.176 24.75 393.176 24.218C393.176 23.182 392.808 22.3653 392.07 21.768C391.333 21.1613 390.227 20.858 388.752 20.858H384.412V27.844H388.752ZM384.412 12.08V18.926H387.996C388.762 18.926 389.424 18.842 389.984 18.674C390.554 18.506 391.02 18.2727 391.384 17.974C391.758 17.6753 392.033 17.316 392.21 16.896C392.388 16.4667 392.476 16 392.476 15.496C392.476 14.3107 392.122 13.4473 391.412 12.906C390.703 12.3553 389.602 12.08 388.108 12.08H384.412ZM388.108 9.938C389.34 9.938 390.4 10.0593 391.286 10.302C392.182 10.5447 392.915 10.89 393.484 11.338C394.063 11.786 394.488 12.3367 394.758 12.99C395.029 13.634 395.164 14.362 395.164 15.174C395.164 15.6687 395.085 16.1447 394.926 16.602C394.777 17.05 394.548 17.47 394.24 17.862C393.932 18.254 393.54 18.6087 393.064 18.926C392.598 19.234 392.047 19.486 391.412 19.682C392.887 19.962 393.993 20.4893 394.73 21.264C395.477 22.0293 395.85 23.0373 395.85 24.288C395.85 25.1373 395.692 25.912 395.374 26.612C395.066 27.312 394.609 27.914 394.002 28.418C393.405 28.922 392.668 29.314 391.79 29.594C390.913 29.8647 389.914 30 388.794 30H381.71V9.938H388.108Z" fill="#AEB2B6"/>
<path d="M160.58 51.08V80H155.84V61.32C155.84 60.5733 155.88 59.7667 155.96 58.9L147.22 75.32C146.807 76.1067 146.173 76.5 145.32 76.5H144.56C143.707 76.5 143.073 76.1067 142.66 75.32L133.82 58.84C133.86 59.28 133.893 59.7133 133.92 60.14C133.947 60.5667 133.96 60.96 133.96 61.32V80H129.22V51.08H133.28C133.52 51.08 133.727 51.0867 133.9 51.1C134.073 51.1133 134.227 51.1467 134.36 51.2C134.507 51.2533 134.633 51.34 134.74 51.46C134.86 51.58 134.973 51.74 135.08 51.94L143.74 68C143.967 68.4267 144.173 68.8667 144.36 69.32C144.56 69.7733 144.753 70.24 144.94 70.72C145.127 70.2267 145.32 69.7533 145.52 69.3C145.72 68.8333 145.933 68.3867 146.16 67.96L154.7 51.94C154.807 51.74 154.92 51.58 155.04 51.46C155.16 51.34 155.287 51.2533 155.42 51.2C155.567 51.1467 155.727 51.1133 155.9 51.1C156.073 51.0867 156.28 51.08 156.52 51.08H160.58ZM193.213 51.08V80H187.812V61.88C187.812 61.2 187.826 60.4867 187.853 59.74C187.893 58.9933 187.972 58.2 188.093 57.36C187.826 58.1067 187.533 58.8 187.213 59.44C186.906 60.0667 186.606 60.62 186.313 61.1L175.252 78.34C175.132 78.54 174.986 78.74 174.812 78.94C174.652 79.14 174.472 79.32 174.272 79.48C174.072 79.6267 173.852 79.7533 173.612 79.86C173.372 79.9533 173.126 80 172.872 80H168.832V51.08H174.232V69.2C174.232 69.88 174.212 70.6 174.172 71.36C174.146 72.1067 174.072 72.9 173.952 73.74C174.219 72.9933 174.506 72.3 174.812 71.66C175.132 71.02 175.446 70.46 175.752 69.98L186.792 52.74C186.913 52.54 187.053 52.34 187.213 52.14C187.386 51.94 187.573 51.7667 187.773 51.62C187.972 51.46 188.186 51.3333 188.413 51.24C188.653 51.1333 188.906 51.08 189.173 51.08H193.213ZM225.833 51.08V80H220.433V67.36H206.853V80H201.453V51.08H206.853V63.52H220.433V51.08H225.833ZM251.913 55.22H239.473V80H234.073V51.08H251.913V55.22ZM283.961 65.54C283.961 67.66 283.608 69.6267 282.901 71.44C282.208 73.24 281.221 74.8 279.941 76.12C278.661 77.44 277.121 78.4733 275.321 79.22C273.521 79.9533 271.521 80.32 269.321 80.32C267.134 80.32 265.141 79.9533 263.341 79.22C261.541 78.4733 259.994 77.44 258.701 76.12C257.421 74.8 256.428 73.24 255.721 71.44C255.014 69.6267 254.661 67.66 254.661 65.54C254.661 63.42 255.014 61.46 255.721 59.66C256.428 57.8467 257.421 56.28 258.701 54.96C259.994 53.64 261.541 52.6133 263.341 51.88C265.141 51.1333 267.134 50.76 269.321 50.76C270.788 50.76 272.168 50.9333 273.461 51.28C274.754 51.6133 275.941 52.0933 277.021 52.72C278.101 53.3333 279.068 54.0867 279.921 54.98C280.788 55.86 281.521 56.8467 282.121 57.94C282.721 59.0333 283.174 60.22 283.481 61.5C283.801 62.78 283.961 64.1267 283.961 65.54ZM278.461 65.54C278.461 63.9533 278.248 62.5333 277.821 61.28C277.394 60.0133 276.788 58.94 276.001 58.06C275.214 57.18 274.254 56.5067 273.121 56.04C272.001 55.5733 270.734 55.34 269.321 55.34C267.908 55.34 266.634 55.5733 265.501 56.04C264.381 56.5067 263.421 57.18 262.621 58.06C261.834 58.94 261.228 60.0133 260.801 61.28C260.374 62.5333 260.161 63.9533 260.161 65.54C260.161 67.1267 260.374 68.5533 260.801 69.82C261.228 71.0733 261.834 72.14 262.621 73.02C263.421 73.8867 264.381 74.5533 265.501 75.02C266.634 75.4867 267.908 75.72 269.321 75.72C270.734 75.72 272.001 75.4867 273.121 75.02C274.254 74.5533 275.214 73.8867 276.001 73.02C276.788 72.14 277.394 71.0733 277.821 69.82C278.248 68.5533 278.461 67.1267 278.461 65.54ZM310.346 73.18C310.639 73.18 310.899 73.2933 311.126 73.52L313.246 75.82C312.072 77.2733 310.626 78.3867 308.906 79.16C307.199 79.9333 305.146 80.32 302.746 80.32C300.599 80.32 298.666 79.9533 296.946 79.22C295.239 78.4867 293.779 77.4667 292.566 76.16C291.352 74.8533 290.419 73.2933 289.766 71.48C289.126 69.6667 288.806 67.6867 288.806 65.54C288.806 63.3667 289.152 61.38 289.846 59.58C290.539 57.7667 291.512 56.2067 292.766 54.9C294.032 53.5933 295.539 52.58 297.286 51.86C299.032 51.1267 300.966 50.76 303.086 50.76C305.192 50.76 307.059 51.1067 308.686 51.8C310.326 52.4933 311.719 53.4 312.866 54.52L311.066 57.02C310.959 57.18 310.819 57.32 310.646 57.44C310.486 57.56 310.259 57.62 309.966 57.62C309.766 57.62 309.559 57.5667 309.346 57.46C309.132 57.34 308.899 57.2 308.646 57.04C308.392 56.8667 308.099 56.68 307.766 56.48C307.432 56.28 307.046 56.1 306.606 55.94C306.166 55.7667 305.652 55.6267 305.066 55.52C304.492 55.4 303.826 55.34 303.066 55.34C301.772 55.34 300.586 55.5733 299.506 56.04C298.439 56.4933 297.519 57.16 296.746 58.04C295.972 58.9067 295.372 59.9733 294.946 61.24C294.519 62.4933 294.306 63.9267 294.306 65.54C294.306 67.1667 294.532 68.6133 294.986 69.88C295.452 71.1467 296.079 72.2133 296.866 73.08C297.652 73.9467 298.579 74.6133 299.646 75.08C300.712 75.5333 301.859 75.76 303.086 75.76C303.819 75.76 304.479 75.72 305.066 75.64C305.666 75.56 306.212 75.4333 306.706 75.26C307.212 75.0867 307.686 74.8667 308.126 74.6C308.579 74.32 309.026 73.98 309.466 73.58C309.599 73.46 309.739 73.3667 309.886 73.3C310.032 73.22 310.186 73.18 310.346 73.18ZM341.671 51.08L329.991 75.98C329.578 76.8467 329.138 77.56 328.671 78.12C328.204 78.68 327.698 79.12 327.151 79.44C326.618 79.76 326.038 79.98 325.411 80.1C324.798 80.2333 324.138 80.3 323.431 80.3C322.471 80.3 321.771 80.2133 321.331 80.04C320.891 79.8667 320.671 79.6133 320.671 79.28V75.92H322.231C322.524 75.92 322.824 75.8933 323.131 75.84C323.438 75.7867 323.738 75.68 324.031 75.52C324.338 75.36 324.631 75.1333 324.911 74.84C325.191 74.5467 325.451 74.16 325.691 73.68L326.831 71.36L315.231 51.08H320.271C320.738 51.08 321.111 51.1933 321.391 51.42C321.671 51.6467 321.904 51.9333 322.091 52.28L327.711 62.88C328.018 63.4667 328.291 64.0467 328.531 64.62C328.784 65.1933 329.004 65.78 329.191 66.38C329.538 65.18 329.984 64.0133 330.531 62.88L335.431 52.28C335.578 51.9867 335.798 51.7133 336.091 51.46C336.384 51.2067 336.758 51.08 337.211 51.08H341.671ZM369.692 80H364.272V55.22H351.712V80H346.312V51.08H369.692V80ZM387.317 65.62C388.304 65.62 389.164 65.5 389.897 65.26C390.63 65.0067 391.237 64.6533 391.717 64.2C392.21 63.7333 392.577 63.1733 392.817 62.52C393.057 61.8533 393.177 61.1133 393.177 60.3C393.177 59.5267 393.057 58.8267 392.817 58.2C392.577 57.5733 392.217 57.04 391.737 56.6C391.257 56.16 390.65 55.8267 389.917 55.6C389.184 55.36 388.317 55.24 387.317 55.24H383.297V65.62H387.317ZM387.317 51.08C389.25 51.08 390.924 51.3067 392.337 51.76C393.75 52.2133 394.917 52.8467 395.837 53.66C396.757 54.4733 397.437 55.4467 397.877 56.58C398.33 57.7133 398.557 58.9533 398.557 60.3C398.557 61.7 398.324 62.9867 397.857 64.16C397.39 65.32 396.69 66.32 395.757 67.16C394.824 68 393.65 68.6533 392.237 69.12C390.837 69.5867 389.197 69.82 387.317 69.82H383.297V80H377.917V51.08H387.317ZM417.749 69.08L414.229 59.46C414.056 59.0333 413.876 58.5267 413.689 57.94C413.503 57.3533 413.316 56.72 413.129 56.04C412.956 56.72 412.776 57.36 412.589 57.96C412.403 58.5467 412.223 59.06 412.049 59.5L408.549 69.08H417.749ZM427.249 80H423.089C422.623 80 422.243 79.8867 421.949 79.66C421.656 79.42 421.436 79.1267 421.289 78.78L419.129 72.88H407.149L404.989 78.78C404.883 79.0867 404.676 79.3667 404.369 79.62C404.063 79.8733 403.676 80 403.209 80H399.029L410.389 51.08H415.889L427.249 80ZM442.806 75.8C443.806 75.8 444.646 75.68 445.326 75.44C446.006 75.2 446.546 74.88 446.946 74.48C447.359 74.08 447.652 73.6133 447.826 73.08C448.012 72.5467 448.106 71.98 448.106 71.38C448.106 70.7533 448.006 70.1933 447.806 69.7C447.606 69.1933 447.292 68.7667 446.866 68.42C446.439 68.06 445.886 67.7867 445.206 67.6C444.539 67.4133 443.732 67.32 442.786 67.32H437.366V75.8H442.806ZM437.366 55.24V63.6H441.646C443.486 63.6 444.872 63.2667 445.806 62.6C446.752 61.9333 447.226 60.8733 447.226 59.42C447.226 57.9133 446.799 56.84 445.946 56.2C445.092 55.56 443.759 55.24 441.946 55.24H437.366ZM441.946 51.08C443.839 51.08 445.459 51.26 446.806 51.62C448.152 51.98 449.252 52.4933 450.106 53.16C450.972 53.8267 451.606 54.6333 452.006 55.58C452.406 56.5267 452.606 57.5933 452.606 58.78C452.606 59.46 452.506 60.1133 452.306 60.74C452.106 61.3533 451.792 61.9333 451.366 62.48C450.952 63.0133 450.419 63.5 449.766 63.94C449.126 64.38 448.359 64.7533 447.466 65.06C451.439 65.9533 453.426 68.1 453.426 71.5C453.426 72.7267 453.192 73.86 452.726 74.9C452.259 75.94 451.579 76.84 450.686 77.6C449.792 78.3467 448.692 78.9333 447.386 79.36C446.079 79.7867 444.586 80 442.906 80H431.986V51.08H441.946ZM483.434 80H478.014V55.22H470.114C469.927 58.8467 469.66 61.9867 469.314 64.64C468.98 67.28 468.574 69.5333 468.094 71.4C467.627 73.2533 467.087 74.76 466.474 75.92C465.874 77.08 465.214 77.9867 464.494 78.64C463.774 79.28 463 79.72 462.174 79.96C461.347 80.1867 460.48 80.3 459.574 80.3C458.614 80.3 457.914 80.2133 457.474 80.04C457.034 79.8667 456.814 79.6133 456.814 79.28V75.92H458.354C458.7 75.92 459.047 75.88 459.394 75.8C459.754 75.72 460.107 75.5533 460.454 75.3C460.814 75.0333 461.16 74.6533 461.494 74.16C461.84 73.6667 462.167 73.0067 462.474 72.18C462.794 71.34 463.087 70.3133 463.354 69.1C463.634 67.8867 463.88 66.4267 464.094 64.72C464.32 63.0133 464.514 61.04 464.674 58.8C464.847 56.5467 464.974 53.9733 465.054 51.08H483.434V80ZM497.079 55.36V63.38H507.199V67.52H497.079V75.7H509.919V80H491.679V51.08H509.919V55.36H497.079ZM540.867 51.08V80H535.467V67.36H521.887V80H516.487V51.08H521.887V63.52H535.467V51.08H540.867ZM573.488 51.08V80H568.088V61.88C568.088 61.2 568.101 60.4867 568.128 59.74C568.168 58.9933 568.248 58.2 568.368 57.36C568.101 58.1067 567.808 58.8 567.488 59.44C567.181 60.0667 566.881 60.62 566.588 61.1L555.528 78.34C555.408 78.54 555.261 78.74 555.088 78.94C554.928 79.14 554.748 79.32 554.548 79.48C554.348 79.6267 554.128 79.7533 553.888 79.86C553.648 79.9533 553.401 80 553.148 80H549.108V51.08H554.508V69.2C554.508 69.88 554.488 70.6 554.448 71.36C554.421 72.1067 554.348 72.9 554.228 73.74C554.494 72.9933 554.781 72.3 555.088 71.66C555.408 71.02 555.721 70.46 556.028 69.98L567.068 52.74C567.188 52.54 567.328 52.34 567.488 52.14C567.661 51.94 567.848 51.7667 568.048 51.62C568.248 51.46 568.461 51.3333 568.688 51.24C568.928 51.1333 569.181 51.08 569.448 51.08H573.488ZM597.068 63.84V55.26H592.208C591.208 55.26 590.368 55.3733 589.688 55.6C589.021 55.8133 588.481 56.1133 588.068 56.5C587.668 56.8867 587.374 57.34 587.188 57.86C587.014 58.3667 586.928 58.92 586.928 59.52C586.928 60.1733 587.014 60.7667 587.188 61.3C587.361 61.8333 587.654 62.2867 588.068 62.66C588.481 63.0333 589.021 63.3267 589.688 63.54C590.368 63.74 591.208 63.84 592.208 63.84H597.068ZM602.448 80H597.068V68.04H594.108C593.788 68.04 593.474 68.0733 593.168 68.14C592.874 68.1933 592.588 68.3 592.308 68.46C592.041 68.6067 591.774 68.8133 591.508 69.08C591.241 69.3333 590.981 69.6667 590.728 70.08L585.628 78.14C585.294 78.7 584.848 79.1533 584.288 79.5C583.728 79.8333 583.061 80 582.288 80H578.228L584.868 69.84C585.668 68.56 586.688 67.6467 587.928 67.1C586.861 66.82 585.928 66.44 585.128 65.96C584.341 65.48 583.688 64.92 583.168 64.28C582.648 63.6267 582.261 62.9067 582.008 62.12C581.754 61.32 581.628 60.4667 581.628 59.56C581.628 58.32 581.861 57.18 582.328 56.14C582.808 55.1 583.494 54.2067 584.388 53.46C585.294 52.7133 586.401 52.1333 587.708 51.72C589.028 51.2933 590.528 51.08 592.208 51.08H602.448V80Z" fill="#444444"/>
</svg>
